<svg width="62" height="56" viewBox="0 0 62 56" fill="none" xmlns="http://www.w3.org/2000/svg">
<path fill-rule="evenodd" clip-rule="evenodd" d="M2.85254 19.4279C1.03507 21.0911 0 23.4414 0 25.905V46.4083C0 51.2574 3.93092 55.1883 8.77995 55.1883H31.357C36.206 55.1883 40.1369 51.2574 40.1369 46.4083V19.4413C40.1369 14.5923 36.206 10.6614 31.357 10.6614H15.8431C13.649 10.6614 11.5344 11.4829 9.9157 12.9642L2.85254 19.4279Z" fill="#3AC4FF"/>
<path fill-rule="evenodd" clip-rule="evenodd" d="M11.8636 22.1145C10.217 23.7611 9.29199 25.9943 9.29199 28.3229V46.3276C9.29199 51.1766 13.2229 55.1075 18.0719 55.1075H52.6779C57.5269 55.1075 61.4579 51.1766 61.4579 46.3276V8.77995C61.4579 3.93092 57.5269 0 52.6779 0H37.6149C35.2863 0 33.0531 0.925029 31.4065 2.57159L11.8636 22.1145Z" fill="#1162FF"/>
<path fill-rule="evenodd" clip-rule="evenodd" d="M61.4594 18.7032L43.3557 36.8704L34.2442 27.727C32.655 26.1323 30.074 26.1277 28.4793 27.7169C26.8846 29.306 26.88 31.8871 28.4692 33.4818L43.3557 48.4205L61.4594 30.2533V18.7032Z" fill="white"/>
</svg>
